<?xml version="1.0" encoding="UTF-8"?>
<svg version="1.1" xmlns="http://www.w3.org/2000/svg" width="786" height="792">
<path d="M0 0 C259.38 0 518.76 0 786 0 C786 261.36 786 522.72 786 792 C526.62 792 267.24 792 0 792 C0 530.64 0 269.28 0 0 Z " fill="#010101" transform="translate(0,0)"/>
<path d="M0 0 C4.38550419 0.87710084 8.72207761 1.86731336 13.0625 2.9375 C13.76955078 3.10701172 14.47660156 3.27652344 15.20507812 3.45117188 C18.68671024 4.3109552 21.88477881 5.19559916 25 7 C25 7.66 25 8.32 25 9 C25.7125293 9.09651855 26.42505859 9.19303711 27.15917969 9.29248047 C35.15682805 10.48629475 42.59085418 12.56592294 50.25 15.125 C51.38824219 15.49753906 52.52648437 15.87007812 53.69921875 16.25390625 C56.46878459 17.16157909 59.23551029 18.0770068 62 19 C62 19.66 62 20.32 62 21 C65.96 21.66 69.92 22.32 74 23 C74 23.66 74 24.32 74 25 C74.91652344 25.07734375 74.91652344 25.07734375 75.8515625 25.15625 C84.29391066 26.20262555 91.75559536 28.96725388 99.68066406 31.95703125 C107.35749702 34.83288085 115.0236158 37.11151028 123 39 C123 39.66 123 40.32 123 41 C123.61488281 41.13277344 124.22976563 41.26554687 124.86328125 41.40234375 C125.67152344 41.57894531 126.47976563 41.75554687 127.3125 41.9375 C128.11300781 42.11152344 128.91351562 42.28554688 129.73828125 42.46484375 C132 43 132 43 135 44 C134.32970129 60.75746777 121.79867058 79.1165453 113 93 C112.55527344 93.70769531 112.11054687 94.41539062 111.65234375 95.14453125 C96.03406879 119.28977526 75.66245401 141.29917765 51.5 157 C50.88777588 157.39856201 50.27555176 157.79712402 49.64477539 158.20776367 C45.25062845 161 45.25062845 161 43 161 C43 161.66 43 162.32 43 163 C41.02 163.66 39.04 164.32 37 165 C37 165.66 37 166.32 37 167 C30.375 170 30.375 170 27 170 C27 170.66 27 171.32 27 172 C25.23141309 172.67260351 23.46003984 173.33788395 21.6875 174 C20.70136719 174.37125 19.71523438 174.7425 18.69921875 175.125 C16 176 16 176 13 176 C13 176.66 13 177.32 13 178 C12.18015625 178.26554688 11.3603125 178.53109375 10.515625 178.8046875 C9.43796875 179.15789062 8.3603125 179.51109375 7.25 179.875 C5.64898437 180.39707031 5.64898437 180.39707031 4.015625 180.9296875 C1.13147079 181.87329487 1.13147079 181.87329487 -0.921875 183.0078125 C-3.98506455 184.47031277 -7.21646874 185.20131369 -10.5 186 C-11.55924683 186.26055176 -11.55924683 186.26055176 -12.63989258 186.52636719 C-20.38541716 188.39208388 -28.01019076 190 -36 190 C-36 237.85 -36 285.7 -36 335 C-48.54 335 -61.08 335 -74 335 C-74 289.13 -74 243.26 -74 196 C-77.96 197.32 -81.92 198.64 -86 200 C-88.93157389 200.81613972 -91.86623519 201.56124635 -94.8203125 202.2890625 C-97.17797086 202.87597948 -97.17797086 202.87597948 -99 205 C-101.32275177 205.40047444 -103.65739357 205.7397104 -106 206 C-106 206.66 -106 207.32 -106 208 C-106.78310547 208.32871094 -106.78310547 208.32871094 -107.58203125 208.6640625 C-113.15917589 211.06682534 -118.43536139 213.82825036 -123.71484375 216.828125 C-126 218 -126 218 -128 218 C-128 218.66 -128 219.32 -128 220 C-130.69566035 221.94338304 -133.45276254 223.68322664 -136.328125 225.34765625 C-146.47546401 231.62298432 -155.42529652 239.75991909 -164 248 C-164.51481934 248.49290527 -165.02963867 248.98581055 -165.56005859 249.49365234 C-172.25573162 255.94049268 -178.41556275 262.5463916 -184 270 C-184.74765625 270.97710937 -185.4953125 271.95421875 -186.265625 272.9609375 C-190.51128707 277.96432592 -190.51128707 277.96432592 -192 284 C-178.27582295 290.2382623 -163.44632122 293.84344081 -149 298 C-149.12761719 297.09378906 -149.25523437 296.18757813 -149.38671875 295.25390625 C-150.18264562 285.48571281 -150.18264562 285.48571281 -146.97265625 281.453125 C-144.06392699 279.16620443 -141.04649509 277.09910942 -138 275 C-135.93362798 273.23536074 -133.96852541 271.37246833 -132 269.5 C-117.20834851 255.73611617 -117.20834851 255.73611617 -112 254 C-112 286.01 -112 318.02 -112 351 C-116.60057086 350.07988583 -119.79672559 348.89559434 -124 347 C-124 346.34 -124 345.68 -124 345 C-125.051875 344.9175 -126.10375 344.835 -127.1875 344.75 C-132.06903004 344.13554167 -136.58289854 342.68347247 -141.2578125 341.1875 C-145.59194361 339.81215986 -149.94816691 338.52549653 -154.3125 337.25 C-155.07232178 337.02731445 -155.83214355 336.80462891 -156.61499023 336.57519531 C-158.40977099 336.04937016 -160.20485205 335.52457018 -162 335 C-162 334.34 -162 333.68 -162 333 C-162.70205566 332.93031006 -163.40411133 332.86062012 -164.12744141 332.78881836 C-174.06252724 331.54986761 -183.21845789 328.61933217 -192.68603516 325.4597168 C-195.38759028 324.55829905 -198.09360889 323.67149796 -200.80078125 322.78710938 C-202.54194131 322.21437594 -204.28283655 321.64083664 -206.0234375 321.06640625 C-206.82147797 320.80380508 -207.61951843 320.54120392 -208.44174194 320.27064514 C-211.97606031 319.08877633 -215.43908218 317.85168091 -218.85595703 316.36108398 C-222.07255654 314.96858963 -225.07147755 314.19901914 -228.5 313.5 C-233.36001463 312.43547845 -237.5255972 311.14398467 -242 309 C-243.6642135 308.32723284 -245.32986582 307.65793165 -247 307 C-247 305.35 -247 303.7 -247 302 C-246.01 301.67 -245.02 301.34 -244 301 C-243.90203125 300.3709375 -243.8040625 299.741875 -243.703125 299.09375 C-243.55359375 298.2378125 -243.4040625 297.381875 -243.25 296.5 C-243.04117188 295.24703125 -243.04117188 295.24703125 -242.828125 293.96875 C-241.72540772 290.01561259 -239.90866989 286.61851999 -238 283 C-237.32983671 281.67623268 -236.660561 280.35201564 -235.9921875 279.02734375 C-220.388116 248.694058 -220.388116 248.694058 -213 245 C-212.06586847 243.33190798 -211.13322066 241.6629533 -210.2109375 239.98828125 C-208.20883221 236.70095352 -205.80781599 233.63934703 -203 231 C-202.34 231 -201.68 231 -201 231 C-200.73823975 230.41371826 -200.47647949 229.82743652 -200.20678711 229.22338867 C-198.93252809 226.87568952 -197.57261122 225.31418111 -195.69140625 223.42578125 C-195.03229248 222.76255859 -194.37317871 222.09933594 -193.6940918 221.41601562 C-192.63895386 220.37477539 -192.63895386 220.37477539 -191.5625 219.3125 C-190.8403833 218.59642578 -190.1182666 217.88035156 -189.37426758 217.14257812 C-183.84400239 211.7138252 -178.1881624 206.67655021 -172 202 C-171.14535156 201.35160156 -170.29070312 200.70320312 -169.41015625 200.03515625 C-131.60433168 172 -131.60433168 172 -118 172 C-118 171.34 -118 170.68 -118 170 C-87.03341628 159 -87.03341628 159 -74 159 C-74 111.48 -74 63.96 -74 15 C-61.79 15 -49.58 15 -37 15 C-37 60.87 -37 106.74 -37 154 C-21.36401064 151.06065672 -21.36401064 151.06065672 -8 145 C-4.76745137 143.53065971 -1.55295069 142.1902212 1.8046875 141.03515625 C2.79726563 140.69355469 3.78984375 140.35195313 4.8125 140 C5.74707031 139.690625 6.68164062 139.38125 7.64453125 139.0625 C10.30888306 138.11124914 10.30888306 138.11124914 12 135 C12.70125 134.731875 13.4025 134.46375 14.125 134.1875 C17.46267438 132.80889536 19.87913369 130.95388132 22.71875 128.75 C25.14328086 126.89008591 27.62863828 125.13713769 30.125 123.375 C45.20104866 112.41249924 58.45869043 99.63310993 70 85 C70.71285156 84.11957031 71.42570312 83.23914063 72.16015625 82.33203125 C79.2357066 74.83565673 79.2357066 74.83565673 83 66 C78.71 64.68 74.42 63.36 70 62 C70 61.34 70 60.68 70 60 C68.2365625 59.814375 68.2365625 59.814375 66.4375 59.625 C59.92678408 58.93966148 53.81394964 56.64196899 47.6875 54.4375 C46.47449219 54.00308594 45.26148438 53.56867188 44.01171875 53.12109375 C41 52 41 52 39 51 C39.0928125 51.94101562 39.185625 52.88203125 39.28125 53.8515625 C39.86143769 63.85980023 39.86143769 63.85980023 37.39453125 67.125 C35.32923165 68.61294568 33.25616478 69.82561572 31 71 C27.97402376 73.32226084 25.25270798 75.73433706 22.56762695 78.43725586 C19.23769216 81.75681864 15.8385803 85.00364696 12.4375 88.25 C11.30538086 89.34828125 11.30538086 89.34828125 10.15039062 90.46875 C9.41884766 91.16484375 8.68730469 91.8609375 7.93359375 92.578125 C7.27415771 93.21137695 6.61472168 93.84462891 5.93530273 94.49707031 C4 96 4 96 0 97 C0 64.99 0 32.98 0 0 Z " fill="#FAFAFA" transform="translate(445,220)"/>
<path d="M0 0 C0.18136629 32.67662409 -0.34309873 65.33051489 -1 98 C-4.58307485 97.23918811 -5.80073173 96.41542508 -8.0625 93.5 C-10.8552583 90.14869004 -13.76396261 87.45331194 -17.1875 84.75 C-22.16591458 80.80445152 -26.61613753 76.53897412 -31.02807617 71.98535156 C-33.26646501 69.68361567 -35.31431432 67.79045712 -38 66 C-38.29296875 62.7421875 -38.29296875 62.7421875 -38.1875 58.875 C-38.14689453 56.95300781 -38.14689453 56.95300781 -38.10546875 54.9921875 C-38.07066406 54.00476563 -38.03585937 53.01734375 -38 52 C-40.41817328 52.61958171 -42.83442554 53.24543253 -45.25 53.875 C-45.93191406 54.04902344 -46.61382812 54.22304688 -47.31640625 54.40234375 C-50.08165813 55.1272156 -52.67802246 55.83675964 -55.234375 57.1328125 C-57 58 -57 58 -61 58 C-61 58.66 -61 59.32 -61 60 C-63.41509441 60.67286212 -65.83180356 61.33846012 -68.25 62 C-68.93191406 62.19078125 -69.61382812 62.3815625 -70.31640625 62.578125 C-73.70600912 63.49957044 -76.45778976 64 -80 64 C-80 64.66 -80 65.32 -80 66 C-80.99 66 -81.98 66 -83 66 C-82.4946875 66.98742187 -81.989375 67.97484375 -81.46875 68.9921875 C-80.81228987 70.28635176 -80.15605133 71.58062845 -79.5 72.875 C-79.16613281 73.52597656 -78.83226562 74.17695313 -78.48828125 74.84765625 C-76 79.7734375 -76 79.7734375 -76 82 C-75.34 82 -74.68 82 -74 82 C-72.46542853 84.01145025 -71.03820436 86.030385 -69.625 88.125 C-65.91792396 93.46066178 -62.03272323 98.55921819 -57.8125 103.5 C-57.33828613 104.06219238 -56.86407227 104.62438477 -56.37548828 105.20361328 C-53.34836289 108.70382471 -50.1177329 111.74115946 -46.54663086 114.68408203 C-45 116 -45 116 -42.75 118.375 C-26.08243869 134.28494489 -4.49469858 143.74071258 17 151 C16.67 151.66 16.34 152.32 16 153 C11.17574056 154.47180796 7.07522852 155.25376143 2 155 C2 155.66 2 156.32 2 157 C0.73160474 157.50615298 -0.53983102 158.00469099 -1.8125 158.5 C-2.87404297 158.91765625 -2.87404297 158.91765625 -3.95703125 159.34375 C-6 160 -6 160 -9 160 C-9 160.66 -9 161.32 -9 162 C-9.64066406 162.24234375 -10.28132813 162.4846875 -10.94140625 162.734375 C-15.06651507 164.33277782 -18.99775486 165.88903676 -22.75 168.25 C-26.45143144 170.24307847 -27.87775305 170.72745534 -32 170 C-40.32321836 166.89186819 -47.06128693 161.40741088 -54 156 C-55.47695086 154.91364771 -56.95580819 153.82987708 -58.4375 152.75 C-61.57260767 150.40189467 -64.2625095 147.80768256 -67 145 C-68.11853567 144.05479674 -69.244062 143.11782816 -70.375 142.1875 C-73.67179676 139.40338006 -76.41314573 136.33332921 -79.19921875 133.046875 C-80.96366993 131.04129492 -82.81713667 129.21732187 -84.75 127.375 C-89.95344875 122.26283983 -94.2629237 116.44557309 -98.68896484 110.66699219 C-100.00719871 108.99084678 -101.37956853 107.37469773 -102.76953125 105.7578125 C-105 103 -105 103 -106 100 C-106.680625 99.525625 -107.36125 99.05125 -108.0625 98.5625 C-108.701875 98.046875 -109.34125 97.53125 -110 97 C-110 95.68 -110 94.36 -110 93 C-111.485 92.505 -111.485 92.505 -113 92 C-113.76802039 90.32903672 -114.52534755 88.65121806 -115.19628906 86.93896484 C-116.45944207 83.89158903 -118.1863532 81.14114766 -119.875 78.3125 C-124.59979709 70.23889174 -128.09681907 61.89262626 -131 53 C-131.66 53 -132.32 53 -133 53 C-134.19287411 49.12315913 -135 46.08378077 -135 42 C-134.38253906 41.81824219 -133.76507813 41.63648438 -133.12890625 41.44921875 C-128.90498992 40.19554495 -124.71489934 38.91190266 -120.5625 37.4375 C-115.48429382 35.70836169 -110.28724692 34.84002988 -105 34 C-105 33.34 -105 32.68 -105 32 C-102.73000175 31.49622232 -100.45896997 30.99709981 -98.1875 30.5 C-96.29064453 30.08234375 -96.29064453 30.08234375 -94.35546875 29.65625 C-91 29 -91 29 -88 29 C-88 28.34 -88 27.68 -88 27 C-81.13429459 24.03617213 -74.34981314 21.90172172 -67.0625 20.25 C-66.13115234 20.02957031 -65.19980469 19.80914062 -64.24023438 19.58203125 C-57.43553474 18 -57.43553474 18 -54 18 C-54 17.34 -54 16.68 -54 16 C-47.75902261 13.55581494 -41.73445781 11.61689584 -35.13671875 10.42578125 C-32.58731798 9.91776538 -30.38065988 9.03772354 -28 8 C-26.66958515 7.55370372 -25.33578296 7.11746269 -24 6.6875 C-18.93400313 5.04126316 -14.03343566 3.02482868 -9.11328125 0.98828125 C-5.87346601 -0.040167 -3.37183485 -0.07423847 0 0 Z " fill="#FAFAFA" transform="translate(333,221)"/>
<path d="M0 0 C0.79921875 0.45503906 1.5984375 0.91007812 2.421875 1.37890625 C3.02515625 1.72824219 3.6284375 2.07757813 4.25 2.4375 C4.25 3.0975 4.25 3.7575 4.25 4.4375 C4.93707031 4.66308594 5.62414062 4.88867188 6.33203125 5.12109375 C9.95530686 6.75569064 12.86497045 9.02408632 15.9375 11.5 C16.55254395 11.98952148 17.16758789 12.47904297 17.80126953 12.98339844 C22.34850673 16.63398063 26.72774891 20.44190519 31.01953125 24.390625 C33.08296274 26.28421187 35.18574581 28.11576164 37.3125 29.9375 C45.48424909 37.09188274 52.51953595 44.92616498 59.25 53.4375 C59.91515625 54.25863281 60.5803125 55.07976562 61.265625 55.92578125 C64.4879597 59.95369963 67.02278116 63.76034043 69.25 68.4375 C69.765625 68.953125 70.28125 69.46875 70.8125 70 C72.70695884 71.89445884 73.2616608 73.96665201 74.25 76.4375 C75.22753644 77.45946992 76.2305881 78.45729625 77.25 79.4375 C80.4969349 83.73183325 82.38772256 88.01440079 84.22265625 93.0703125 C85.28934934 95.52816805 86.64326161 97.30636918 88.25 99.4375 C88.9271108 100.9570006 89.55037708 102.50135631 90.125 104.0625 C91.8602783 108.61592406 93.95394422 112.84378389 96.296875 117.11328125 C97.36588859 119.72009718 97.42781924 121.64672588 97.25 124.4375 C96.18072266 124.71013672 96.18072266 124.71013672 95.08984375 124.98828125 C90.85443473 126.09986235 86.85777321 127.15612352 82.875 129 C77.50271155 131.13039025 71.9596053 131.70770083 66.25 132.4375 C66.25 133.0975 66.25 133.7575 66.25 134.4375 C65.34121094 134.66824219 64.43242188 134.89898438 63.49609375 135.13671875 C55.32201232 137.25778809 47.3569272 139.66912957 39.39453125 142.484375 C36.25 143.4375 36.25 143.4375 32.25 143.4375 C32.25 144.0975 32.25 144.7575 32.25 145.4375 C27.3 146.4275 22.35 147.4175 17.25 148.4375 C17.25 149.0975 17.25 149.7575 17.25 150.4375 C16.68079834 150.57325439 16.11159668 150.70900879 15.52514648 150.84887695 C12.91101693 151.47619371 10.29929154 152.11302219 7.6875 152.75 C6.79224609 152.96333984 5.89699219 153.17667969 4.97460938 153.39648438 C-0.20951389 154.66877836 -4.89958911 156.21439501 -9.75 158.4375 C-12.7181926 159.53600866 -15.73447886 160.47706281 -18.75 161.4375 C-19.38276855 161.64197754 -20.01553711 161.84645508 -20.66748047 162.05712891 C-22.81838361 162.75153064 -24.97139479 163.43902793 -27.125 164.125 C-27.8274585 164.35171387 -28.52991699 164.57842773 -29.25366211 164.81201172 C-32.19942812 165.74135407 -34.64113509 166.4375 -37.75 166.4375 C-37.86931001 133.7541332 -37.76084158 101.10703969 -36.75 68.4375 C-35.76 68.4375 -34.77 68.4375 -33.75 68.4375 C-33.53601563 69.00210938 -33.32203125 69.56671875 -33.1015625 70.1484375 C-31.28629015 73.2228583 -28.94183145 74.88618836 -26.125 77.0625 C-24.29794084 78.47623986 -22.4961425 79.92495515 -20.75 81.4375 C-20.75 82.0975 -20.75 82.7575 -20.75 83.4375 C-20.193125 83.685 -19.63625 83.9325 -19.0625 84.1875 C-14.22724565 86.801151 -10.60368903 90.58381097 -6.75 94.4375 C-6.0590625 94.91703125 -5.368125 95.3965625 -4.65625 95.890625 C-1.05817074 98.50049939 1.01858353 100.02780273 1.76171875 104.5546875 C1.75112824 107.55533059 1.60216202 110.45879627 1.25 113.4375 C3.95873873 112.64719983 6.66699416 111.85530434 9.375 111.0625 C10.13554687 110.84078125 10.89609375 110.6190625 11.6796875 110.390625 C15.9005205 109.15348429 20.08083529 107.84103982 24.25 106.4375 C25.87300423 105.95161629 27.49793725 105.47211493 29.125 105 C32.37306627 104.03978735 35.53266898 102.9817204 38.6875 101.75 C42.25 100.4375 42.25 100.4375 45.25 100.4375 C45.06584568 97.49658413 45.06584568 97.49658413 44.25 94.4375 C42.29836882 93.00112302 42.29836882 93.00112302 40.25 92.4375 C40.25 91.1175 40.25 89.7975 40.25 88.4375 C39.59 88.4375 38.93 88.4375 38.25 88.4375 C37.95609375 87.80585938 37.6621875 87.17421875 37.359375 86.5234375 C28.64883723 69.15242251 11.60354215 50.99439971 -5.28125 41.48046875 C-5.7659375 41.13628906 -6.250625 40.79210937 -6.75 40.4375 C-6.75 39.7775 -6.75 39.1175 -6.75 38.4375 C-8.4 37.7775 -10.05 37.1175 -11.75 36.4375 C-11.75 35.7775 -11.75 35.1175 -11.75 34.4375 C-12.36488281 34.25574219 -12.97976563 34.07398438 -13.61328125 33.88671875 C-14.82564453 33.50966797 -14.82564453 33.50966797 -16.0625 33.125 C-16.86300781 32.88136719 -17.66351563 32.63773437 -18.48828125 32.38671875 C-20.90525358 31.37234176 -21.95557243 30.30238938 -23.75 28.4375 C-30.03787608 24.65323697 -36.67879312 22.28804988 -43.75 20.4375 C-43.75 19.7775 -43.75 19.1175 -43.75 18.4375 C-44.53246094 18.31632812 -45.31492187 18.19515625 -46.12109375 18.0703125 C-47.13300781 17.90273438 -48.14492188 17.73515625 -49.1875 17.5625 C-50.70150391 17.31886719 -50.70150391 17.31886719 -52.24609375 17.0703125 C-53.07238281 16.86148437 -53.89867187 16.65265625 -54.75 16.4375 C-55.08 15.7775 -55.41 15.1175 -55.75 14.4375 C-53.48050898 13.76594651 -51.2096039 13.1001037 -48.9375 12.4375 C-47.04064453 11.880625 -47.04064453 11.880625 -45.10546875 11.3125 C-41.75 10.4375 -41.75 10.4375 -38.75 10.4375 C-38.75 9.7775 -38.75 9.1175 -38.75 8.4375 C-37.94175781 8.18355469 -37.13351562 7.92960937 -36.30078125 7.66796875 C-35.23214844 7.32378906 -34.16351563 6.97960937 -33.0625 6.625 C-31.47888672 6.12033203 -31.47888672 6.12033203 -29.86328125 5.60546875 C-26.88862748 4.48950705 -24.43724015 3.1117491 -21.75 1.4375 C-21.04875 1.2725 -20.3475 1.1075 -19.625 0.9375 C-17.64085212 0.58852637 -17.64085212 0.58852637 -16.375 -1.0625 C-11.31298064 -5.73513325 -5.10564796 -2.92823927 0 0 Z " fill="#F8F8F8" transform="translate(486.75,403.5625)"/>
<path d="M0 0 C1.32 0 2.64 0 4 0 C4 45.87 4 91.74 4 139 C16.54 139 29.08 139 42 139 C42 139.33 42 139.66 42 140 C36.46411467 140.02464775 30.928261 140.04283496 25.39233398 140.05493164 C23.5075627 140.05997244 21.62279535 140.06680498 19.73803711 140.07543945 C17.03498364 140.08751617 14.33198169 140.09323068 11.62890625 140.09765625 C10.35703209 140.10539818 10.35703209 140.10539818 9.0594635 140.11329651 C7.03928932 140.11349195 5.01922066 140.06206211 3 140 C2 139 2 139 1.87695217 136.7373724 C1.87787396 135.72800908 1.87879576 134.71864576 1.87974548 133.67869568 C1.87837082 132.52458191 1.87699615 131.37046814 1.87557983 130.18138123 C1.87917511 128.90392532 1.88277039 127.62646942 1.88647461 126.31030273 C1.88675648 124.96041872 1.88659875 123.61053456 1.8860321 122.26065063 C1.88574413 118.58519392 1.89164084 114.90976957 1.89860606 111.2343204 C1.90483962 107.39726851 1.9054434 103.56021596 1.90663147 99.72315979 C1.90974478 92.45228782 1.91795817 85.18143081 1.92798096 77.91056544 C1.9391421 69.63500648 1.94465255 61.35944682 1.94967639 53.08388221 C1.96014078 36.05591281 1.97774022 19.02795798 2 2 C1.01 1.67 0.02 1.34 -1 1 C-0.67 0.67 -0.34 0.34 0 0 Z " fill="#2A2A2A" transform="translate(367,416)"/>
<path d="M0 0 C0.18136629 32.67662409 -0.34309873 65.33051489 -1 98 C-5.20393865 97.23163306 -6.52187506 95.45167403 -9 92 C-5.125 93.875 -5.125 93.875 -4 95 C-3.08700101 84.04415143 -2.71708768 73.11951842 -2.46484375 62.1328125 C-2.42171887 60.35919508 -2.37830233 58.58558473 -2.33460999 56.8119812 C-2.22158244 52.19263193 -2.11245972 47.57319876 -2.00421143 42.95373535 C-1.89258292 38.22040074 -1.7771768 33.48715829 -1.66210938 28.75390625 C-1.43775484 19.50268949 -1.21753448 10.25137947 -1 1 C-2.22976563 1.45052734 -2.22976563 1.45052734 -3.484375 1.91015625 C-5.10085938 2.48056641 -5.10085938 2.48056641 -6.75 3.0625 C-7.81734375 3.44535156 -8.8846875 3.82820312 -9.984375 4.22265625 C-12.92280042 4.98010011 -14.22348948 5.07151741 -17 4 C-15.29651829 3.3210322 -13.58692821 2.65738043 -11.875 2 C-10.92367188 1.62875 -9.97234375 1.2575 -8.9921875 0.875 C-5.83586558 -0.04799753 -3.26825378 -0.06353835 0 0 Z " fill="#B3B3B3" transform="translate(333,221)"/>
<path d="M0 0 C0.66 0.33 1.32 0.66 2 1 C-7.18340126 11.30381623 -7.18340126 11.30381623 -12 16 C-13.60552902 17.60280316 -15.20958026 19.20708738 -16.8125 20.8125 C-18.20833333 22.20833333 -19.60416667 23.60416667 -21 25 C-21.66 24.67 -22.32 24.34 -23 24 C-15.70145063 15.62018405 -7.90434298 7.8031494 0 0 Z " fill="#313131" transform="translate(289,459)"/>
<path d="M0 0 C0.33 0 0.66 0 1 0 C1 10.56 1 21.12 1 32 C-3.59037956 30.85240511 -4.33669182 29.70960782 -7 26 C-3.125 27.875 -3.125 27.875 -2 29 C-1.34 19.43 -0.68 9.86 0 0 Z " fill="#989898" transform="translate(331,287)"/>
<path d="M0 0 C0 4.0521288 -1.50488362 5.09105379 -4.1875 8.0625 C-4.96480469 8.94035156 -5.74210938 9.81820313 -6.54296875 10.72265625 C-8.99164656 12.99225746 -10.84446143 14.00793903 -14 15 C-9.59156563 9.70987876 -4.92440206 4.81191572 0 0 Z " fill="#BBBBBB" transform="translate(258,435)"/>
<path d="M0 0 C0 3 0 3 -1.96875 5.04296875 C-2.8040625 5.75066406 -3.639375 6.45835937 -4.5 7.1875 C-5.3353125 7.90292969 -6.170625 8.61835938 -7.03125 9.35546875 C-7.6809375 9.89816406 -8.330625 10.44085938 -9 11 C-9.66 10.67 -10.32 10.34 -11 10 C-5.555 5.05 -5.555 5.05 0 0 Z " fill="#C4C4C4" transform="translate(316,487)"/>
<path d="M0 0 C0.66 0.33 1.32 0.66 2 1 C-1.33562767 5.51290803 -3.33289301 7.68206814 -9 9 C-6 6 -3 3 0 0 Z " fill="#B3B3B3" transform="translate(268,426)"/>
<path d="M0 0 C0.33 1.32 0.66 2.64 1 4 C-0.65 5.32 -2.3 6.64 -4 8 C-4 4.09161134 -2.49432124 2.88405893 0 0 Z " fill="#4D4D4D" transform="translate(265,484)"/>
<path d="M0 0 C2.4375 0.8125 2.4375 0.8125 4.4375 3.8125 C1.06044375 3.27524105 -2.259186 2.70185377 -5.5625 1.8125 C-2.5625 -0.1875 -2.5625 -0.1875 0 0 Z " fill="#636363" transform="translate(479.5625,398.1875)"/>
</svg>
